<svg xmlns="http://www.w3.org/2000/svg" xmlns:xlink="http://www.w3.org/1999/xlink" width="794" zoomAndPan="magnify" viewBox="0 0 595.5 842.249979" height="1123" preserveAspectRatio="xMidYMid meet" version="1.0"><defs><clipPath id="c23d8930e1"><path d="M 36.828125 326 L 185 326 L 185 408 L 36.828125 408 Z M 36.828125 326 " clip-rule="nonzero"/></clipPath><clipPath id="8d644c832b"><path d="M 36.828125 374 L 185 374 L 185 455 L 36.828125 455 Z M 36.828125 374 " clip-rule="nonzero"/></clipPath><clipPath id="f87d2018a1"><path d="M 36.828125 421 L 185 421 L 185 502 L 36.828125 502 Z M 36.828125 421 " clip-rule="nonzero"/></clipPath><clipPath id="88d8596b8c"><path d="M 36.828125 326 L 185 326 L 185 408 L 36.828125 408 Z M 36.828125 326 " clip-rule="nonzero"/></clipPath><clipPath id="58c55f75be"><path d="M 36.828125 279 L 185 279 L 185 344 L 36.828125 344 Z M 36.828125 279 " clip-rule="nonzero"/></clipPath><clipPath id="f64ce82f56"><path d="M 508 447 L 550.121094 447 L 550.121094 502 L 508 502 Z M 508 447 " clip-rule="nonzero"/></clipPath><clipPath id="769e7e5e79"><path d="M 406 533 L 425 533 L 425 558.421875 L 406 558.421875 Z M 406 533 " clip-rule="nonzero"/></clipPath></defs><g clip-path="url(#c23d8930e1)"><path fill="#96d0ed" d="M 184.234375 407.070312 L 36.894531 359.144531 L 36.894531 326.960938 L 184.234375 374.886719 Z M 184.234375 407.070312 " fill-opacity="1" fill-rule="evenodd"/></g><g clip-path="url(#8d644c832b)"><path fill="#288ece" d="M 184.167969 454.335938 L 36.828125 406.402344 L 36.828125 374.21875 L 184.167969 422.144531 Z M 184.167969 454.335938 " fill-opacity="1" fill-rule="evenodd"/></g><g clip-path="url(#f87d2018a1)"><path fill="#275fa4" d="M 184.167969 501.597656 L 36.828125 453.664062 L 36.828125 421.480469 L 184.167969 469.402344 Z M 184.167969 501.597656 " fill-opacity="1" fill-rule="evenodd"/></g><g clip-path="url(#88d8596b8c)"><path fill="#96d0ed" d="M 184.234375 407.070312 L 36.894531 359.144531 L 36.894531 326.960938 L 184.234375 374.886719 Z M 184.234375 407.070312 " fill-opacity="1" fill-rule="evenodd"/></g><path fill="#ea7326" d="M 158.921875 366.648438 L 184.167969 358.441406 L 184.167969 326.25 L 109.4375 350.558594 Z M 158.921875 366.648438 " fill-opacity="1" fill-rule="evenodd"/><g clip-path="url(#58c55f75be)"><path fill="#f5ae1b" d="M 86.390625 343.0625 L 184.214844 311.242188 L 184.214844 279.046875 L 36.90625 326.960938 Z M 86.390625 343.0625 " fill-opacity="1" fill-rule="evenodd"/></g><path fill="#3f3e3f" d="M 207.683594 426.578125 C 211.585938 426.578125 212.921875 426.03125 213.476562 424.742188 L 213.476562 378.363281 C 212.921875 377.074219 211.527344 376.515625 207.683594 376.515625 L 207.683594 374.5625 L 227.554688 374.5625 L 227.554688 376.515625 C 223.652344 376.515625 222.304688 377.074219 221.761719 378.363281 L 221.761719 424.722656 C 222.304688 426.011719 223.710938 426.558594 227.554688 426.558594 L 227.554688 428.515625 L 207.683594 428.515625 Z M 239.796875 426.578125 C 240.941406 426.609375 242.074219 426.519531 243.199219 426.304688 L 222.21875 399.574219 L 244.761719 377.179688 C 243.84375 376.722656 242.457031 376.535156 240.070312 376.535156 L 240.070312 374.582031 L 254.515625 374.582031 L 254.515625 376.535156 C 250.613281 376.535156 249.550781 377.824219 248.808594 378.65625 L 230.277344 396.996094 L 251.902344 425.105469 C 252.816406 426.03125 254.289062 426.578125 257.695312 426.578125 L 257.695312 428.535156 L 239.796875 428.535156 Z M 239.796875 426.578125 " fill-opacity="1" fill-rule="nonzero"/><path fill="#3f3e3f" d="M 267.363281 426.578125 C 271.261719 426.578125 272.597656 426.03125 273.15625 424.742188 L 273.15625 378.363281 C 272.597656 377.074219 271.203125 376.515625 267.363281 376.515625 L 267.363281 374.5625 L 287.417969 374.5625 L 287.417969 376.515625 C 283.515625 376.515625 282.167969 377.074219 281.621094 378.363281 L 281.621094 424.722656 C 282.167969 426.011719 283.574219 426.558594 287.417969 426.558594 L 287.417969 428.515625 L 267.363281 428.515625 Z M 267.363281 426.578125 " fill-opacity="1" fill-rule="nonzero"/><path fill="#3f3e3f" d="M 298.964844 426.578125 C 302.867188 426.578125 304.214844 426.03125 304.757812 424.742188 L 304.757812 378.363281 C 304.214844 377.074219 302.808594 376.515625 298.964844 376.515625 L 298.964844 374.5625 L 311.296875 374.5625 L 341.75 412.257812 L 341.75 378.363281 C 341.203125 377.074219 339.796875 376.515625 335.953125 376.515625 L 335.953125 374.5625 L 350.671875 374.5625 L 350.671875 376.515625 C 346.773438 376.515625 345.433594 377.074219 344.878906 378.363281 L 344.878906 428.535156 L 344.089844 428.535156 L 307.929688 382.730469 L 307.929688 424.742188 C 308.476562 426.03125 309.878906 426.578125 313.722656 426.578125 L 313.722656 428.535156 L 298.964844 428.535156 Z M 298.964844 426.578125 " fill-opacity="1" fill-rule="nonzero"/><path fill="#3f3e3f" d="M 369.753906 402.152344 C 369.753906 420.035156 379.867188 426.296875 387.789062 426.296875 C 391.144531 426.300781 394.394531 425.71875 397.542969 424.546875 L 397.542969 405.640625 C 396.988281 404.351562 395.59375 403.796875 391.738281 403.796875 L 391.738281 401.839844 L 411.804688 401.839844 L 411.804688 403.796875 C 407.902344 403.796875 406.554688 404.351562 406 405.640625 L 406 421.128906 C 404.4375 423.980469 398.644531 429.421875 387.601562 429.421875 C 370.484375 429.421875 360.183594 416.332031 360.183594 402.320312 C 360.183594 384.441406 374.53125 373.664062 388.980469 373.664062 C 393.671875 373.664062 398.363281 376.429688 400.117188 376.429688 C 400.761719 376.429688 401.21875 375.6875 401.21875 374.582031 L 403.335938 374.582031 L 404.253906 386.304688 L 402.234375 386.304688 C 401.492188 381.234375 396.988281 376.808594 389.074219 376.808594 C 378.582031 376.75 369.753906 388.132812 369.753906 402.152344 Z M 369.753906 402.152344 " fill-opacity="1" fill-rule="nonzero"/><path fill="#3f3e3f" d="M 419.199219 371.171875 C 419.199219 367.488281 422.691406 367.207031 423.429688 367.207031 C 427.9375 367.207031 431.898438 370.136719 431.898438 375.226562 C 431.898438 382.691406 423.429688 385.640625 420.484375 386.558594 L 420.484375 383.980469 C 423.15625 383.609375 427.664062 380.484375 427.664062 376.332031 C 427.664062 374.023438 427.480469 374.023438 426.746094 374.023438 C 426.015625 374.023438 425.636719 375.226562 423.890625 375.226562 C 421.207031 375.226562 419.199219 374.023438 419.199219 371.171875 Z M 419.199219 371.171875 " fill-opacity="1" fill-rule="nonzero"/><path fill="#3f3e3f" d="M 447.75 426.65625 C 447.105469 426.65625 445.71875 427.390625 445.71875 428.496094 L 443.582031 428.496094 L 443.582031 415.6875 L 445.613281 415.6875 C 447.085938 423.621094 454.539062 426.285156 461.21875 426.285156 C 467.296875 426.285156 472.359375 423.707031 472.359375 417.433594 C 472.359375 410.4375 463.578125 407.664062 457.082031 403.621094 C 451.105469 399.925781 443.652344 395.5 443.652344 387.988281 C 443.652344 380.707031 451.457031 373.703125 459.757812 373.703125 C 464.449219 373.703125 469.140625 376.46875 470.886719 376.46875 C 471.53125 376.46875 471.988281 375.726562 471.988281 374.621094 L 474.105469 374.621094 L 475.023438 386.34375 L 473.003906 386.34375 C 472.261719 381.273438 467.753906 376.847656 459.84375 376.847656 C 453.679688 376.847656 450.546875 381.917969 450.546875 385.054688 C 450.546875 391.144531 458.925781 393.996094 465.453125 397.960938 C 472.542969 402.289062 479.898438 406.53125 479.898438 414.914062 C 479.898438 424.683594 470.328125 429.480469 461.773438 429.480469 C 454.3125 429.421875 449.496094 426.65625 447.75 426.65625 Z M 447.75 426.65625 " fill-opacity="1" fill-rule="nonzero"/><path fill="#3f3e3f" d="M 217.28125 473.390625 C 217.28125 490.535156 226.480469 499.378906 236.050781 499.378906 C 242.488281 499.378906 249.296875 493.945312 250.953125 489.433594 L 253.167969 490.535156 C 250.867188 496.066406 245.53125 502.515625 234.207031 502.515625 C 217.097656 502.515625 207.714844 489.433594 207.714844 475.421875 C 207.714844 457.542969 221.144531 446.753906 235.589844 446.753906 C 240.285156 446.753906 244.058594 449.519531 245.804688 449.519531 C 246.449219 449.519531 246.90625 448.777344 246.90625 447.675781 L 249.023438 447.675781 L 249.941406 459.398438 L 247.921875 459.398438 C 247.179688 454.335938 243.589844 449.910156 235.679688 449.910156 C 225.164062 449.890625 217.28125 459.378906 217.28125 473.390625 Z M 217.28125 473.390625 " fill-opacity="1" fill-rule="nonzero"/><path fill="#3f3e3f" d="M 283.757812 446.753906 C 298.9375 446.753906 309.246094 459.660156 309.246094 474.679688 C 309.246094 489.695312 298.75 502.515625 283.757812 502.515625 C 268.386719 502.515625 258.269531 489.707031 258.269531 474.679688 C 258.269531 459.652344 268.570312 446.753906 283.757812 446.753906 Z M 284.121094 499.378906 C 295.628906 499.378906 300.039062 486.109375 300.039062 475.421875 C 300.039062 464.078125 294.703125 449.890625 283.386719 449.890625 C 271.886719 449.890625 267.46875 463.246094 267.46875 473.945312 C 267.46875 485.28125 272.617188 499.378906 284.121094 499.378906 Z M 284.121094 499.378906 " fill-opacity="1" fill-rule="nonzero"/><path fill="#3f3e3f" d="M 315.429688 499.660156 C 319.332031 499.660156 320.667969 499.105469 321.226562 497.816406 L 321.226562 451.453125 C 320.667969 450.164062 319.273438 449.609375 315.429688 449.609375 L 315.429688 447.65625 L 335.484375 447.65625 L 335.484375 449.609375 C 331.585938 449.609375 330.238281 450.164062 329.691406 451.453125 L 329.691406 498.460938 L 350.664062 498.460938 C 351.960938 497.902344 353.523438 495.96875 354.808594 492.65625 L 356.652344 492.65625 L 354.4375 501.597656 L 315.421875 501.597656 Z M 315.429688 499.660156 " fill-opacity="1" fill-rule="nonzero"/><path fill="#3f3e3f" d="M 361.890625 499.660156 C 365.792969 499.660156 367.136719 499.105469 367.683594 497.816406 L 367.683594 451.453125 C 367.136719 450.164062 365.734375 449.609375 361.890625 449.609375 L 361.890625 447.65625 L 381.945312 447.65625 L 381.945312 449.609375 C 378.042969 449.609375 376.707031 450.164062 376.152344 451.453125 L 376.152344 498.460938 L 397.132812 498.460938 C 398.421875 497.902344 399.980469 495.96875 401.269531 492.65625 L 403.113281 492.65625 L 400.90625 501.597656 L 361.890625 501.597656 Z M 361.890625 499.660156 " fill-opacity="1" fill-rule="nonzero"/><path fill="#3f3e3f" d="M 408.359375 499.660156 C 412.261719 499.660156 413.597656 499.105469 414.15625 497.816406 L 414.15625 451.453125 C 413.597656 450.164062 412.203125 449.609375 408.359375 449.609375 L 408.359375 447.65625 L 445.425781 447.65625 L 445.425781 456.59375 L 443.476562 456.59375 C 443.476562 452.6875 442.929688 451.347656 441.640625 450.789062 L 422.621094 450.789062 L 422.621094 471.992188 L 435.507812 471.992188 C 436.785156 471.433594 437.339844 470.039062 437.339844 466.179688 L 439.292969 466.179688 L 439.292969 480.933594 L 437.339844 480.933594 C 437.339844 477.023438 436.785156 475.675781 435.507812 475.070312 L 422.621094 475.070312 L 422.621094 498.390625 L 443.582031 498.390625 C 444.871094 497.835938 446.429688 495.898438 447.71875 492.589844 L 449.5625 492.589844 L 447.347656 501.527344 L 408.332031 501.527344 Z M 408.359375 499.660156 " fill-opacity="1" fill-rule="nonzero"/><path fill="#3f3e3f" d="M 462.78125 475.234375 C 462.78125 493.117188 472.90625 499.378906 480.816406 499.378906 C 484.171875 499.382812 487.421875 498.800781 490.570312 497.628906 L 490.570312 478.734375 C 490.023438 477.445312 488.617188 476.898438 484.777344 476.898438 L 484.777344 474.941406 L 504.832031 474.941406 L 504.832031 476.898438 C 500.929688 476.898438 499.59375 477.445312 499.035156 478.734375 L 499.035156 494.21875 C 497.476562 497.082031 491.671875 502.515625 480.628906 502.515625 C 463.519531 502.515625 453.210938 489.433594 453.210938 475.421875 C 453.210938 457.542969 467.570312 446.753906 482.015625 446.753906 C 486.707031 446.753906 491.398438 449.519531 493.144531 449.519531 C 493.789062 449.519531 494.257812 448.777344 494.257812 447.675781 L 496.363281 447.675781 L 497.289062 459.398438 L 495.28125 459.398438 C 494.550781 454.335938 490.042969 449.910156 482.121094 449.910156 C 471.617188 449.890625 462.78125 461.226562 462.78125 475.234375 Z M 462.78125 475.234375 " fill-opacity="1" fill-rule="nonzero"/><g clip-path="url(#f64ce82f56)"><path fill="#3f3e3f" d="M 508.9375 499.660156 C 512.839844 499.660156 514.183594 499.105469 514.730469 497.816406 L 514.730469 451.453125 C 514.183594 450.164062 512.78125 449.609375 508.9375 449.609375 L 508.9375 447.65625 L 546.003906 447.65625 L 546.003906 456.59375 L 544.054688 456.59375 C 544.054688 452.6875 543.496094 451.347656 542.210938 450.789062 L 523.160156 450.789062 L 523.160156 471.992188 L 536.042969 471.992188 C 537.332031 471.433594 537.886719 470.039062 537.886719 466.179688 L 539.839844 466.179688 L 539.839844 480.933594 L 537.886719 480.933594 C 537.886719 477.023438 537.332031 475.675781 536.042969 475.070312 L 523.160156 475.070312 L 523.160156 498.390625 L 544.140625 498.390625 C 545.429688 497.835938 546.988281 495.898438 548.277344 492.589844 L 550.121094 492.589844 L 547.953125 501.597656 L 508.9375 501.597656 Z M 508.9375 499.660156 " fill-opacity="1" fill-rule="nonzero"/></g><path fill="#3f3e3f" d="M 223.566406 545.320312 C 223.132812 546.246094 222.628906 547.128906 222.050781 547.976562 C 221.546875 548.730469 220.960938 549.414062 220.285156 550.027344 C 219.707031 550.578125 219.058594 551.019531 218.335938 551.355469 C 217.660156 551.671875 216.945312 551.828125 216.199219 551.824219 C 215.515625 551.835938 214.863281 551.6875 214.25 551.386719 C 213.667969 551.082031 213.191406 550.660156 212.816406 550.125 C 212.410156 549.527344 212.125 548.875 211.957031 548.171875 C 211.761719 547.3125 211.664062 546.445312 211.675781 545.5625 C 211.675781 544.515625 211.808594 543.488281 212.074219 542.476562 C 212.34375 541.476562 212.722656 540.519531 213.207031 539.601562 C 213.6875 538.703125 214.265625 537.867188 214.941406 537.101562 C 215.609375 536.351562 216.359375 535.703125 217.195312 535.148438 C 218.007812 534.589844 218.882812 534.152344 219.820312 533.839844 C 220.753906 533.523438 221.710938 533.367188 222.695312 533.371094 C 223.371094 533.363281 224.042969 533.425781 224.707031 533.554688 C 225.359375 533.6875 225.980469 533.910156 226.570312 534.21875 L 224.402344 551.640625 L 223.566406 551.640625 C 223.367188 551.664062 223.203125 551.597656 223.078125 551.445312 C 222.988281 551.304688 222.945312 551.152344 222.949219 550.984375 Z M 224.746094 534.972656 C 224.382812 534.832031 224.007812 534.738281 223.621094 534.6875 C 223.230469 534.632812 222.839844 534.605469 222.441406 534.609375 C 221.21875 534.609375 220.066406 534.902344 218.988281 535.488281 C 217.863281 536.09375 216.886719 536.882812 216.0625 537.863281 C 215.226562 538.894531 214.578125 540.03125 214.113281 541.273438 C 213.613281 542.554688 213.367188 543.882812 213.371094 545.261719 C 213.296875 546.59375 213.570312 547.855469 214.191406 549.039062 C 214.457031 549.488281 214.824219 549.835938 215.285156 550.078125 C 215.746094 550.324219 216.234375 550.429688 216.757812 550.398438 C 217.484375 550.390625 218.15625 550.195312 218.773438 549.8125 C 219.519531 549.378906 220.167969 548.835938 220.726562 548.179688 C 221.390625 547.402344 221.964844 546.558594 222.441406 545.652344 C 223.003906 544.597656 223.476562 543.503906 223.867188 542.378906 Z M 224.746094 534.972656 " fill-opacity="1" fill-rule="nonzero"/><path fill="#3f3e3f" d="M 237.140625 539.496094 C 237.578125 538.414062 238.117188 537.390625 238.761719 536.417969 C 239.269531 535.625 239.890625 534.9375 240.625 534.355469 C 241.222656 533.855469 241.90625 533.527344 242.671875 533.378906 C 243.421875 533.257812 244.148438 533.34375 244.847656 533.632812 L 244.535156 535.246094 C 243.78125 534.929688 243.003906 534.855469 242.203125 535.019531 C 241.40625 535.214844 240.71875 535.601562 240.136719 536.183594 C 239.402344 536.910156 238.804688 537.730469 238.34375 538.65625 C 237.734375 539.839844 237.242188 541.070312 236.871094 542.347656 L 235.816406 551.640625 L 234.128906 551.640625 L 236.304688 533.546875 L 237.074219 533.546875 C 237.164062 533.53125 237.25 533.542969 237.335938 533.570312 C 237.421875 533.601562 237.492188 533.648438 237.554688 533.710938 C 237.617188 533.777344 237.664062 533.851562 237.691406 533.9375 C 237.71875 534.023438 237.722656 534.109375 237.707031 534.199219 Z M 237.140625 539.496094 " fill-opacity="1" fill-rule="nonzero"/><path fill="#3f3e3f" d="M 260.40625 550.046875 C 259.882812 550.472656 259.320312 550.835938 258.71875 551.140625 C 258.1875 551.398438 257.632812 551.578125 257.050781 551.679688 C 256.449219 551.777344 255.84375 551.828125 255.238281 551.824219 C 254.296875 551.847656 253.394531 551.671875 252.535156 551.289062 C 251.761719 550.953125 251.109375 550.453125 250.582031 549.792969 C 250.050781 549.109375 249.667969 548.347656 249.441406 547.507812 C 249.179688 546.5625 249.054688 545.601562 249.0625 544.625 C 249.0625 543.667969 249.160156 542.726562 249.363281 541.792969 C 249.554688 540.867188 249.839844 539.976562 250.222656 539.113281 C 250.585938 538.285156 251.035156 537.503906 251.578125 536.777344 C 252.09375 536.082031 252.691406 535.464844 253.375 534.933594 C 254.03125 534.417969 254.75 534.007812 255.53125 533.710938 C 256.867188 533.214844 258.234375 533.125 259.625 533.4375 C 260.082031 533.546875 260.519531 533.710938 260.933594 533.925781 C 261.328125 534.136719 261.6875 534.394531 262.015625 534.699219 C 262.351562 534.992188 262.65625 535.316406 262.921875 535.675781 L 262.414062 536.269531 C 262.320312 536.398438 262.195312 536.464844 262.035156 536.464844 C 261.917969 536.464844 261.773438 536.367188 261.597656 536.183594 C 261.382812 535.949219 261.144531 535.738281 260.882812 535.558594 C 260.53125 535.296875 260.152344 535.089844 259.742188 534.933594 C 259.171875 534.71875 258.578125 534.621094 257.96875 534.640625 C 256.945312 534.636719 256 534.910156 255.128906 535.449219 C 254.222656 536.027344 253.464844 536.761719 252.855469 537.648438 C 252.207031 538.652344 251.730469 539.734375 251.421875 540.890625 C 251.046875 542.113281 250.863281 543.367188 250.867188 544.644531 C 250.863281 545.429688 250.957031 546.207031 251.148438 546.96875 C 251.316406 547.644531 251.605469 548.257812 252.019531 548.816406 C 252.410156 549.339844 252.902344 549.742188 253.492188 550.027344 C 254.15625 550.335938 254.855469 550.484375 255.589844 550.46875 C 256.171875 550.476562 256.746094 550.40625 257.316406 550.261719 C 257.78125 550.140625 258.230469 549.964844 258.660156 549.746094 C 259.03125 549.554688 259.375 549.324219 259.695312 549.058594 C 259.988281 548.816406 260.25 548.589844 260.476562 548.386719 L 261.070312 547.867188 C 261.191406 547.746094 261.335938 547.679688 261.507812 547.664062 C 261.660156 547.667969 261.789062 547.726562 261.890625 547.839844 L 262.269531 548.308594 C 261.695312 548.9375 261.074219 549.519531 260.40625 550.046875 Z M 260.40625 550.046875 " fill-opacity="1" fill-rule="nonzero"/><path fill="#3f3e3f" d="M 273.066406 538.9375 C 273.519531 538.082031 274.050781 537.28125 274.667969 536.535156 C 275.210938 535.863281 275.824219 535.265625 276.511719 534.738281 C 277.105469 534.269531 277.757812 533.898438 278.460938 533.625 C 279.117188 533.371094 279.796875 533.246094 280.5 533.242188 C 281.207031 533.21875 281.878906 533.371094 282.511719 533.691406 C 283.078125 534.007812 283.515625 534.449219 283.828125 535.019531 C 284.183594 535.6875 284.398438 536.398438 284.46875 537.152344 C 284.585938 538.109375 284.585938 539.066406 284.46875 540.023438 L 283.105469 551.640625 L 281.40625 551.640625 L 282.761719 540.109375 C 283.003906 538.777344 282.890625 537.472656 282.421875 536.203125 C 282.199219 535.738281 281.867188 535.375 281.417969 535.121094 C 280.96875 534.867188 280.488281 534.765625 279.972656 534.816406 C 279.285156 534.832031 278.636719 534.996094 278.023438 535.3125 C 277.300781 535.683594 276.648438 536.15625 276.070312 536.730469 C 275.386719 537.410156 274.785156 538.15625 274.265625 538.96875 C 273.675781 539.898438 273.175781 540.875 272.765625 541.898438 L 271.59375 551.667969 L 269.886719 551.667969 L 273.078125 525.289062 L 274.773438 525.289062 Z M 273.066406 538.9375 " fill-opacity="1" fill-rule="nonzero"/><path fill="#3f3e3f" d="M 296.730469 533.554688 L 294.535156 551.640625 L 292.859375 551.640625 L 295.042969 533.605469 Z M 298.058594 527.339844 C 298.058594 527.554688 298.011719 527.753906 297.921875 527.945312 C 297.828125 528.132812 297.707031 528.296875 297.5625 528.445312 C 297.414062 528.589844 297.25 528.703125 297.0625 528.785156 C 296.882812 528.871094 296.695312 528.914062 296.496094 528.914062 C 296.296875 528.917969 296.105469 528.875 295.921875 528.785156 C 295.742188 528.703125 295.589844 528.589844 295.453125 528.445312 C 295.3125 528.296875 295.203125 528.132812 295.121094 527.945312 C 295.035156 527.753906 294.992188 527.550781 294.996094 527.339844 C 294.992188 527.125 295.035156 526.914062 295.121094 526.714844 C 295.207031 526.527344 295.316406 526.351562 295.453125 526.199219 C 295.597656 526.050781 295.757812 525.933594 295.941406 525.847656 C 296.125 525.761719 296.316406 525.71875 296.515625 525.71875 C 296.714844 525.722656 296.902344 525.765625 297.082031 525.847656 C 297.269531 525.933594 297.433594 526.050781 297.582031 526.199219 C 297.730469 526.347656 297.847656 526.519531 297.929688 526.714844 C 298.015625 526.914062 298.058594 527.125 298.058594 527.339844 Z M 298.058594 527.339844 " fill-opacity="1" fill-rule="nonzero"/><path fill="#3f3e3f" d="M 305.785156 548.5625 C 305.785156 548.492188 305.785156 548.394531 305.785156 548.289062 C 305.785156 548.179688 305.785156 548.015625 305.785156 547.800781 C 305.785156 547.585938 305.832031 547.300781 305.871094 546.960938 C 305.910156 546.617188 305.960938 546.179688 306.027344 545.640625 L 307.265625 535.402344 L 304.894531 535.402344 C 304.785156 535.40625 304.6875 535.371094 304.605469 535.292969 C 304.523438 535.203125 304.5 535.097656 304.535156 534.980469 L 304.621094 534.316406 L 307.460938 534.09375 L 308.652344 527.644531 C 308.679688 527.53125 308.734375 527.433594 308.816406 527.351562 C 308.90625 527.265625 309.007812 527.222656 309.128906 527.222656 L 309.957031 527.222656 L 309.109375 534.113281 L 314.320312 534.113281 L 314.171875 535.402344 L 308.972656 535.402344 L 307.726562 545.59375 C 307.667969 546.089844 307.617188 546.492188 307.570312 546.804688 C 307.519531 547.117188 307.5 547.371094 307.480469 547.574219 C 307.460938 547.78125 307.480469 547.925781 307.480469 548.015625 C 307.480469 548.101562 307.480469 548.191406 307.480469 548.238281 C 307.421875 548.886719 307.609375 549.453125 308.035156 549.941406 C 308.433594 550.3125 308.90625 550.488281 309.453125 550.46875 C 309.820312 550.472656 310.171875 550.40625 310.515625 550.273438 C 310.796875 550.160156 311.066406 550.023438 311.324219 549.863281 C 311.515625 549.730469 311.703125 549.589844 311.878906 549.441406 C 311.96875 549.34375 312.074219 549.285156 312.203125 549.257812 C 312.335938 549.25 312.425781 549.308594 312.476562 549.433594 L 312.808594 550.195312 C 312.300781 550.71875 311.71875 551.125 311.050781 551.414062 C 310.394531 551.722656 309.707031 551.878906 308.984375 551.882812 C 308.09375 551.9375 307.320312 551.664062 306.660156 551.0625 C 306.011719 550.355469 305.71875 549.523438 305.785156 548.5625 Z M 305.785156 548.5625 " fill-opacity="1" fill-rule="nonzero"/><path fill="#3f3e3f" d="M 333.90625 548.238281 C 333.363281 548.816406 332.785156 549.355469 332.179688 549.863281 C 331.648438 550.289062 331.078125 550.660156 330.472656 550.976562 C 329.90625 551.261719 329.316406 551.476562 328.695312 551.621094 C 328.054688 551.757812 327.402344 551.828125 326.746094 551.824219 C 325.824219 551.84375 324.9375 551.675781 324.082031 551.328125 C 323.324219 551.003906 322.671875 550.535156 322.132812 549.910156 C 321.5625 549.269531 321.144531 548.542969 320.875 547.730469 C 320.589844 546.777344 320.453125 545.796875 320.464844 544.800781 C 320.464844 543.878906 320.554688 542.960938 320.726562 542.054688 C 320.90625 541.148438 321.175781 540.269531 321.535156 539.417969 C 321.882812 538.574219 322.324219 537.78125 322.855469 537.042969 C 323.367188 536.308594 323.96875 535.65625 324.660156 535.089844 C 325.335938 534.539062 326.085938 534.109375 326.902344 533.800781 C 327.761719 533.476562 328.648438 533.320312 329.566406 533.332031 C 330.332031 533.3125 331.078125 533.4375 331.796875 533.703125 C 332.355469 533.914062 332.847656 534.222656 333.28125 534.628906 C 333.644531 534.964844 333.917969 535.363281 334.101562 535.820312 C 334.253906 536.195312 334.332031 536.582031 334.335938 536.984375 C 334.339844 537.464844 334.277344 537.9375 334.140625 538.402344 C 333.992188 538.871094 333.757812 539.296875 333.4375 539.671875 C 333.039062 540.117188 332.578125 540.492188 332.0625 540.792969 C 331.355469 541.203125 330.617188 541.527344 329.839844 541.773438 C 328.78125 542.113281 327.703125 542.382812 326.609375 542.582031 C 325.351562 542.828125 323.886719 543.03125 322.191406 543.21875 L 322.132812 543.960938 C 322.132812 544.214844 322.132812 544.457031 322.132812 544.703125 C 322.042969 546.253906 322.449219 547.660156 323.351562 548.921875 C 323.8125 549.453125 324.367188 549.855469 325.015625 550.121094 C 325.664062 550.390625 326.339844 550.5 327.039062 550.449219 C 327.621094 550.453125 328.199219 550.386719 328.765625 550.242188 C 329.246094 550.117188 329.703125 549.9375 330.140625 549.707031 C 330.519531 549.507812 330.875 549.277344 331.214844 549.011719 C 331.515625 548.777344 331.789062 548.542969 332.03125 548.328125 L 332.65625 547.789062 C 332.792969 547.667969 332.953125 547.597656 333.136719 547.585938 C 333.292969 547.585938 333.417969 547.644531 333.515625 547.769531 Z M 329.46875 534.5625 C 328.546875 534.550781 327.675781 534.75 326.851562 535.167969 C 326.0625 535.582031 325.375 536.128906 324.796875 536.808594 C 324.175781 537.527344 323.675781 538.324219 323.292969 539.191406 C 322.882812 540.09375 322.585938 541.035156 322.394531 542.007812 C 323.925781 541.839844 325.242188 541.644531 326.355469 541.421875 C 327.3125 541.234375 328.253906 541 329.183594 540.714844 C 329.839844 540.515625 330.46875 540.246094 331.066406 539.90625 C 331.484375 539.664062 331.855469 539.367188 332.179688 539.007812 C 332.421875 538.71875 332.597656 538.390625 332.707031 538.03125 C 332.789062 537.710938 332.832031 537.382812 332.832031 537.050781 C 332.828125 536.765625 332.773438 536.488281 332.667969 536.222656 C 332.539062 535.910156 332.347656 535.640625 332.089844 535.421875 C 331.785156 535.152344 331.441406 534.949219 331.058594 534.816406 C 330.539062 534.632812 330.007812 534.554688 329.457031 534.570312 Z M 329.46875 534.5625 " fill-opacity="1" fill-rule="nonzero"/><path fill="#3f3e3f" d="M 352.769531 550.046875 C 352.25 550.472656 351.691406 550.835938 351.09375 551.140625 C 350.558594 551.398438 350 551.578125 349.414062 551.679688 C 348.8125 551.78125 348.210938 551.828125 347.601562 551.824219 C 346.660156 551.847656 345.757812 551.667969 344.898438 551.289062 C 344.125 550.953125 343.472656 550.453125 342.949219 549.792969 C 342.414062 549.109375 342.035156 548.347656 341.816406 547.507812 C 341.554688 546.5625 341.425781 545.601562 341.4375 544.625 C 341.4375 543.671875 341.535156 542.726562 341.730469 541.792969 C 341.925781 540.871094 342.210938 539.976562 342.585938 539.113281 C 342.957031 538.289062 343.410156 537.507812 343.941406 536.777344 C 344.460938 536.082031 345.058594 535.46875 345.738281 534.933594 C 346.398438 534.414062 347.117188 534.007812 347.902344 533.710938 C 349.238281 533.214844 350.601562 533.125 351.988281 533.4375 C 352.902344 533.640625 353.703125 534.0625 354.390625 534.699219 C 354.71875 534.996094 355.023438 535.324219 355.296875 535.675781 L 354.789062 536.269531 C 354.695312 536.398438 354.566406 536.464844 354.410156 536.464844 C 354.28125 536.464844 354.136719 536.367188 353.960938 536.183594 C 353.746094 535.949219 353.511719 535.742188 353.257812 535.558594 C 352.902344 535.296875 352.519531 535.089844 352.105469 534.933594 C 351.535156 534.71875 350.941406 534.621094 350.332031 534.640625 C 349.3125 534.636719 348.367188 534.90625 347.503906 535.449219 C 346.59375 536.027344 345.832031 536.757812 345.21875 537.648438 C 344.546875 538.628906 344.039062 539.691406 343.699219 540.832031 C 343.332031 542.058594 343.148438 543.308594 343.152344 544.585938 C 343.144531 545.371094 343.234375 546.148438 343.425781 546.910156 C 343.597656 547.585938 343.886719 548.199219 344.304688 548.757812 C 344.695312 549.285156 345.183594 549.6875 345.777344 549.96875 C 346.441406 550.28125 347.140625 550.429688 347.875 550.410156 C 348.957031 550.425781 349.976562 550.1875 350.9375 549.6875 C 351.308594 549.5 351.652344 549.273438 351.96875 549 C 352.273438 548.757812 352.527344 548.53125 352.761719 548.328125 L 353.347656 547.808594 C 353.472656 547.6875 353.621094 547.621094 353.792969 547.605469 C 353.945312 547.613281 354.070312 547.671875 354.175781 547.78125 L 354.554688 548.25 C 354.007812 548.898438 353.414062 549.496094 352.769531 550.046875 Z M 352.769531 550.046875 " fill-opacity="1" fill-rule="nonzero"/><path fill="#3f3e3f" d="M 377.957031 535.382812 L 376.003906 551.589844 L 374.328125 551.589844 L 376.277344 535.382812 L 366.71875 535.382812 L 365.46875 545.59375 C 365.402344 546.089844 365.355469 546.492188 365.324219 546.804688 C 365.296875 547.117188 365.257812 547.371094 365.238281 547.574219 C 365.21875 547.78125 365.238281 547.925781 365.238281 548.015625 C 365.234375 548.089844 365.234375 548.164062 365.238281 548.238281 C 365.175781 548.882812 365.355469 549.449219 365.773438 549.941406 C 366.171875 550.3125 366.640625 550.488281 367.1875 550.46875 C 367.558594 550.46875 367.914062 550.40625 368.261719 550.273438 C 368.539062 550.160156 368.808594 550.023438 369.058594 549.863281 C 369.285156 549.707031 369.46875 549.570312 369.625 549.441406 C 369.714844 549.34375 369.828125 549.28125 369.957031 549.257812 C 370.082031 549.257812 370.164062 549.316406 370.210938 549.433594 L 370.550781 550.195312 C 370.042969 550.714844 369.453125 551.121094 368.789062 551.414062 C 368.132812 551.726562 367.441406 551.882812 366.71875 551.882812 C 365.832031 551.9375 365.054688 551.664062 364.398438 551.0625 C 363.765625 550.347656 363.476562 549.515625 363.53125 548.5625 C 363.53125 548.492188 363.53125 548.394531 363.53125 548.289062 C 363.53125 548.179688 363.53125 548.015625 363.53125 547.800781 C 363.53125 547.585938 363.578125 547.300781 363.617188 546.960938 C 363.65625 546.617188 363.714844 546.179688 363.773438 545.640625 L 365.042969 535.382812 L 362.671875 535.382812 C 362.558594 535.390625 362.460938 535.351562 362.378906 535.273438 C 362.304688 535.1875 362.273438 535.085938 362.289062 534.972656 L 362.359375 534.335938 L 365.21875 534.113281 L 366.398438 527.644531 C 366.4375 527.535156 366.496094 527.4375 366.574219 527.351562 C 366.652344 527.265625 366.75 527.226562 366.867188 527.222656 L 367.722656 527.222656 L 366.867188 534.132812 L 378.09375 534.132812 Z M 379.730469 527.339844 C 379.730469 527.554688 379.683594 527.753906 379.59375 527.945312 C 379.5 528.132812 379.378906 528.296875 379.234375 528.445312 C 379.089844 528.589844 378.921875 528.703125 378.738281 528.785156 C 378.558594 528.871094 378.367188 528.914062 378.171875 528.914062 C 377.96875 528.917969 377.777344 528.875 377.59375 528.785156 C 377.417969 528.699219 377.257812 528.585938 377.117188 528.445312 C 376.988281 528.292969 376.878906 528.128906 376.796875 527.945312 C 376.707031 527.753906 376.667969 527.550781 376.667969 527.339844 C 376.664062 527.125 376.707031 526.914062 376.796875 526.714844 C 376.882812 526.527344 376.992188 526.355469 377.128906 526.199219 C 377.265625 526.054688 377.425781 525.9375 377.605469 525.847656 C 377.792969 525.765625 377.988281 525.722656 378.191406 525.71875 C 378.386719 525.722656 378.574219 525.765625 378.757812 525.847656 C 378.941406 525.933594 379.109375 526.050781 379.253906 526.199219 C 379.40625 526.347656 379.523438 526.519531 379.605469 526.714844 C 379.6875 526.914062 379.730469 527.125 379.730469 527.339844 Z M 379.730469 527.339844 " fill-opacity="1" fill-rule="nonzero"/><path fill="#3f3e3f" d="M 388.960938 539.359375 C 389.40625 538.445312 389.945312 537.585938 390.578125 536.789062 C 391.132812 536.0625 391.765625 535.414062 392.46875 534.835938 C 393.09375 534.339844 393.773438 533.945312 394.507812 533.652344 C 395.1875 533.382812 395.894531 533.246094 396.625 533.242188 C 397.316406 533.226562 397.964844 533.375 398.578125 533.691406 C 399.144531 534.007812 399.589844 534.449219 399.902344 535.019531 C 400.261719 535.6875 400.480469 536.398438 400.558594 537.152344 C 400.65625 538.109375 400.640625 539.066406 400.507812 540.023438 L 399.199219 551.640625 L 397.503906 551.640625 L 398.859375 540.109375 C 399.101562 538.777344 398.984375 537.472656 398.507812 536.203125 C 398.285156 535.742188 397.949219 535.382812 397.503906 535.132812 C 397.058594 534.882812 396.578125 534.785156 396.070312 534.835938 C 395.351562 534.84375 394.671875 535.011719 394.03125 535.34375 C 393.308594 535.738281 392.65625 536.226562 392.082031 536.816406 C 391.386719 537.511719 390.78125 538.277344 390.265625 539.113281 C 389.664062 540.078125 389.164062 541.089844 388.765625 542.152344 L 387.613281 551.640625 L 385.914062 551.640625 L 388.070312 533.546875 L 388.851562 533.546875 C 388.941406 533.535156 389.027344 533.546875 389.109375 533.574219 C 389.195312 533.605469 389.265625 533.652344 389.328125 533.714844 C 389.390625 533.78125 389.4375 533.855469 389.464844 533.941406 C 389.492188 534.023438 389.5 534.113281 389.484375 534.199219 Z M 388.960938 539.359375 " fill-opacity="1" fill-rule="nonzero"/><g clip-path="url(#769e7e5e79)"><path fill="#3f3e3f" d="M 424.074219 534.191406 L 424.015625 534.765625 C 423.996094 534.886719 423.949219 534.996094 423.871094 535.089844 C 423.773438 535.195312 423.652344 535.25 423.507812 535.253906 L 420.582031 535.488281 C 420.800781 535.882812 420.96875 536.296875 421.089844 536.730469 C 421.210938 537.226562 421.269531 537.734375 421.265625 538.246094 C 421.261719 538.863281 421.175781 539.46875 421.003906 540.0625 C 420.855469 540.582031 420.652344 541.082031 420.398438 541.558594 C 420.164062 542 419.902344 542.421875 419.605469 542.828125 C 419.324219 543.21875 419.0625 543.597656 418.828125 543.980469 C 418.589844 544.34375 418.390625 544.722656 418.222656 545.121094 C 418.0625 545.519531 417.984375 545.929688 417.988281 546.355469 C 417.96875 546.699219 418.039062 547.023438 418.191406 547.332031 C 418.34375 547.636719 418.523438 547.925781 418.730469 548.199219 C 418.953125 548.492188 419.179688 548.785156 419.429688 549.070312 C 419.683594 549.378906 419.914062 549.707031 420.125 550.046875 C 420.351562 550.390625 420.527344 550.761719 420.660156 551.152344 C 420.804688 551.585938 420.871094 552.03125 420.867188 552.488281 C 420.851562 553.273438 420.65625 554.011719 420.28125 554.699219 C 419.871094 555.4375 419.332031 556.0625 418.660156 556.574219 C 417.894531 557.152344 417.050781 557.585938 416.132812 557.875 C 415.066406 558.214844 413.96875 558.378906 412.847656 558.363281 C 411.964844 558.367188 411.09375 558.273438 410.234375 558.078125 C 409.503906 557.910156 408.824219 557.628906 408.195312 557.226562 C 407.640625 556.886719 407.195312 556.4375 406.859375 555.878906 C 406.535156 555.320312 406.378906 554.71875 406.390625 554.074219 C 406.390625 553.070312 406.714844 552.1875 407.367188 551.425781 C 408.035156 550.625 408.847656 550.023438 409.804688 549.617188 C 410.9375 549.128906 412.117188 548.824219 413.34375 548.707031 C 414.738281 548.582031 416.125 548.613281 417.511719 548.804688 C 417.304688 548.527344 417.128906 548.230469 416.984375 547.917969 C 416.832031 547.582031 416.761719 547.230469 416.769531 546.863281 C 416.769531 546.421875 416.839844 545.992188 416.984375 545.574219 C 417.195312 545.011719 417.46875 544.488281 417.8125 544 C 417.332031 544.332031 416.816406 544.59375 416.261719 544.78125 C 415.671875 544.964844 415.066406 545.058594 414.445312 545.054688 C 413.777344 545.058594 413.125 544.949219 412.496094 544.722656 C 411.917969 544.511719 411.414062 544.1875 410.984375 543.746094 C 410.542969 543.289062 410.21875 542.761719 410.007812 542.164062 C 409.753906 541.464844 409.632812 540.746094 409.648438 540.003906 C 409.648438 539.15625 409.796875 538.335938 410.085938 537.542969 C 410.378906 536.742188 410.808594 536.023438 411.375 535.390625 C 411.957031 534.742188 412.648438 534.238281 413.441406 533.878906 C 414.335938 533.480469 415.273438 533.292969 416.25 533.3125 C 417.40625 533.277344 418.46875 533.578125 419.433594 534.21875 Z M 418.339844 549.902344 C 416.832031 549.660156 415.316406 549.59375 413.792969 549.707031 C 412.679688 549.777344 411.609375 550.03125 410.585938 550.46875 C 409.800781 550.777344 409.152344 551.265625 408.632812 551.933594 C 408.21875 552.492188 408 553.121094 407.980469 553.820312 C 407.972656 554.3125 408.089844 554.777344 408.332031 555.207031 C 408.582031 555.609375 408.90625 555.933594 409.304688 556.183594 C 409.800781 556.476562 410.328125 556.6875 410.886719 556.808594 C 411.558594 556.960938 412.238281 557.03125 412.925781 557.023438 C 413.808594 557.035156 414.675781 556.90625 415.519531 556.640625 C 416.226562 556.429688 416.875 556.101562 417.472656 555.664062 C 417.996094 555.273438 418.425781 554.789062 418.75 554.21875 C 419.042969 553.695312 419.191406 553.128906 419.199219 552.527344 C 419.222656 552.003906 419.132812 551.5 418.925781 551.015625 C 418.734375 550.597656 418.503906 550.210938 418.222656 549.851562 Z M 414.808594 543.882812 C 415.539062 543.898438 416.230469 543.734375 416.875 543.394531 C 417.480469 543.078125 417.996094 542.652344 418.417969 542.113281 C 418.851562 541.578125 419.175781 540.980469 419.390625 540.324219 C 419.617188 539.671875 419.730469 538.996094 419.734375 538.304688 C 419.761719 538.050781 419.765625 537.800781 419.738281 537.550781 C 419.710938 537.296875 419.65625 537.050781 419.574219 536.8125 C 419.496094 536.574219 419.386719 536.34375 419.257812 536.128906 C 419.125 535.914062 418.96875 535.714844 418.792969 535.535156 C 418.617188 535.351562 418.425781 535.191406 418.210938 535.054688 C 418 534.914062 417.777344 534.800781 417.539062 534.714844 C 417.304688 534.625 417.058594 534.5625 416.808594 534.53125 C 416.558594 534.496094 416.308594 534.492188 416.054688 534.511719 C 415.324219 534.5 414.632812 534.65625 413.980469 534.980469 C 413.382812 535.277344 412.875 535.683594 412.457031 536.203125 C 412.027344 536.726562 411.699219 537.308594 411.480469 537.953125 C 411.265625 538.609375 411.160156 539.28125 411.160156 539.972656 C 411.074219 541.089844 411.398438 542.066406 412.136719 542.90625 C 412.894531 543.628906 413.792969 543.953125 414.835938 543.882812 Z M 414.808594 543.882812 " fill-opacity="1" fill-rule="nonzero"/></g><path fill="#3f3e3f" d="M 447.425781 535.382812 L 445.476562 551.210938 L 444.714844 555.382812 C 444.679688 555.597656 444.578125 555.777344 444.410156 555.917969 C 444.238281 556.058594 444.046875 556.128906 443.828125 556.125 L 443.210938 556.125 L 445.730469 535.402344 L 443.464844 535.253906 C 443.339844 535.246094 443.226562 535.195312 443.132812 535.109375 C 443.054688 535.015625 443.027344 534.90625 443.046875 534.785156 L 443.125 534.113281 L 445.875 534.113281 L 446.160156 531.835938 C 446.269531 530.894531 446.511719 529.992188 446.878906 529.121094 C 447.195312 528.382812 447.632812 527.734375 448.195312 527.164062 C 448.710938 526.652344 449.308594 526.261719 449.980469 525.992188 C 450.996094 525.597656 452.042969 525.5 453.113281 525.699219 C 453.429688 525.761719 453.734375 525.859375 454.03125 525.984375 L 453.855469 526.851562 C 453.835938 526.945312 453.78125 527.003906 453.6875 527.027344 C 453.578125 527.046875 453.46875 527.046875 453.355469 527.027344 C 453.210938 527.027344 453.046875 527.027344 452.859375 526.949219 C 452.636719 526.933594 452.410156 526.933594 452.1875 526.949219 C 451.648438 526.945312 451.128906 527.035156 450.625 527.222656 C 450.128906 527.410156 449.695312 527.699219 449.328125 528.082031 C 448.902344 528.53125 448.578125 529.042969 448.351562 529.617188 C 448.050781 530.355469 447.863281 531.121094 447.789062 531.914062 L 447.496094 534.140625 L 452.585938 534.140625 L 452.402344 535.410156 Z M 447.425781 535.382812 " fill-opacity="1" fill-rule="nonzero"/><path fill="#3f3e3f" d="M 473.488281 533.554688 L 471.316406 551.640625 L 470.523438 551.640625 C 470.328125 551.664062 470.160156 551.601562 470.027344 551.453125 C 469.910156 551.3125 469.859375 551.148438 469.871094 550.964844 L 470.40625 545.835938 C 469.949219 546.742188 469.410156 547.59375 468.789062 548.394531 C 468.238281 549.105469 467.609375 549.734375 466.90625 550.292969 C 466.285156 550.78125 465.605469 551.171875 464.867188 551.464844 C 464.191406 551.730469 463.488281 551.867188 462.761719 551.875 C 462.082031 551.925781 461.441406 551.789062 460.839844 551.464844 C 460.242188 551.144531 459.773438 550.683594 459.445312 550.085938 C 458.710938 548.480469 458.511719 546.808594 458.847656 545.074219 L 460.164062 533.554688 L 461.863281 533.554688 L 460.507812 545.023438 C 460.257812 546.386719 460.375 547.714844 460.859375 549.011719 C 461.078125 549.476562 461.414062 549.835938 461.859375 550.089844 C 462.304688 550.34375 462.785156 550.445312 463.296875 550.398438 C 464.011719 550.386719 464.683594 550.214844 465.316406 549.882812 C 466.046875 549.503906 466.695312 549.019531 467.265625 548.425781 C 467.953125 547.730469 468.558594 546.96875 469.082031 546.140625 C 469.679688 545.1875 470.179688 544.1875 470.582031 543.140625 L 471.722656 533.554688 Z M 473.488281 533.554688 " fill-opacity="1" fill-rule="nonzero"/><path fill="#3f3e3f" d="M 482.355469 548.5625 C 482.355469 548.492188 482.355469 548.394531 482.355469 548.289062 C 482.355469 548.179688 482.355469 548.015625 482.355469 547.800781 C 482.355469 547.585938 482.355469 547.300781 482.433594 546.960938 C 482.511719 546.617188 482.523438 546.179688 482.601562 545.640625 L 483.828125 535.402344 L 481.460938 535.402344 C 481.347656 535.402344 481.25 535.367188 481.167969 535.292969 C 481.085938 535.203125 481.0625 535.097656 481.097656 534.980469 L 481.1875 534.316406 L 484.023438 534.09375 L 485.226562 527.644531 C 485.25 527.53125 485.300781 527.433594 485.378906 527.351562 C 485.46875 527.269531 485.574219 527.226562 485.691406 527.222656 L 486.523438 527.222656 L 485.671875 534.113281 L 490.882812 534.113281 L 490.746094 535.402344 L 485.527344 535.402344 L 484.277344 545.59375 C 484.21875 546.089844 484.171875 546.492188 484.132812 546.804688 C 484.09375 547.117188 484.054688 547.371094 484.035156 547.574219 C 484.015625 547.78125 484.035156 547.925781 484.035156 548.015625 C 484.03125 548.089844 484.03125 548.164062 484.035156 548.238281 C 483.976562 548.882812 484.160156 549.449219 484.582031 549.941406 C 484.980469 550.316406 485.457031 550.492188 486.003906 550.46875 C 486.371094 550.472656 486.71875 550.410156 487.058594 550.273438 C 487.339844 550.160156 487.609375 550.023438 487.867188 549.863281 C 488.0625 549.734375 488.246094 549.59375 488.425781 549.441406 C 488.515625 549.34375 488.625 549.28125 488.753906 549.257812 C 488.882812 549.257812 488.976562 549.316406 489.027344 549.433594 L 489.351562 550.195312 C 488.847656 550.722656 488.265625 551.128906 487.59375 551.414062 C 486.941406 551.722656 486.257812 551.878906 485.535156 551.882812 C 484.644531 551.933594 483.867188 551.660156 483.207031 551.0625 C 482.570312 550.347656 482.289062 549.515625 482.355469 548.5625 Z M 482.355469 548.5625 " fill-opacity="1" fill-rule="nonzero"/><path fill="#3f3e3f" d="M 512.839844 533.554688 L 510.664062 551.640625 L 509.914062 551.640625 C 509.71875 551.65625 509.550781 551.59375 509.414062 551.453125 C 509.304688 551.308594 509.253906 551.148438 509.257812 550.964844 L 509.804688 545.835938 C 509.34375 546.742188 508.800781 547.59375 508.175781 548.394531 C 507.625 549.101562 507 549.734375 506.304688 550.292969 C 505.675781 550.78125 504.996094 551.171875 504.253906 551.464844 C 503.578125 551.734375 502.875 551.871094 502.148438 551.875 C 501.46875 551.925781 500.832031 551.789062 500.234375 551.464844 C 499.636719 551.140625 499.171875 550.683594 498.839844 550.085938 C 498.105469 548.480469 497.902344 546.808594 498.238281 545.074219 L 499.601562 533.605469 L 501.300781 533.605469 L 499.945312 545.074219 C 499.695312 546.433594 499.808594 547.761719 500.285156 549.058594 C 500.507812 549.523438 500.839844 549.882812 501.289062 550.136719 C 501.734375 550.390625 502.210938 550.496094 502.722656 550.449219 C 503.4375 550.4375 504.113281 550.265625 504.742188 549.929688 C 505.472656 549.550781 506.121094 549.066406 506.695312 548.472656 C 507.378906 547.777344 507.980469 547.015625 508.5 546.1875 C 509.101562 545.238281 509.601562 544.238281 510 543.1875 L 511.140625 533.605469 Z M 512.839844 533.554688 " fill-opacity="1" fill-rule="nonzero"/><path fill="#3f3e3f" d="M 523.453125 539.496094 C 523.890625 538.417969 524.433594 537.390625 525.070312 536.417969 C 525.582031 535.625 526.203125 534.9375 526.945312 534.355469 C 527.542969 533.855469 528.226562 533.527344 528.992188 533.378906 C 529.742188 533.257812 530.464844 533.34375 531.167969 533.632812 L 530.855469 535.246094 C 530.101562 534.929688 529.324219 534.855469 528.523438 535.019531 C 527.722656 535.214844 527.03125 535.601562 526.445312 536.183594 C 525.714844 536.910156 525.121094 537.734375 524.660156 538.65625 C 524.050781 539.839844 523.5625 541.070312 523.1875 542.347656 L 522.078125 551.640625 L 520.398438 551.640625 L 522.59375 533.496094 L 523.375 533.496094 C 523.464844 533.484375 523.550781 533.492188 523.632812 533.523438 C 523.71875 533.550781 523.792969 533.597656 523.855469 533.664062 C 523.917969 533.726562 523.964844 533.804688 523.988281 533.890625 C 524.015625 533.976562 524.023438 534.0625 524.007812 534.152344 Z M 523.453125 539.496094 " fill-opacity="1" fill-rule="nonzero"/><path fill="#3f3e3f" d="M 548.851562 548.238281 C 548.308594 548.816406 547.730469 549.359375 547.117188 549.863281 C 546.589844 550.292969 546.023438 550.664062 545.417969 550.976562 C 544.847656 551.261719 544.253906 551.476562 543.632812 551.621094 C 542.992188 551.757812 542.339844 551.828125 541.683594 551.824219 C 540.757812 551.84375 539.867188 551.675781 539.011719 551.328125 C 538.25 551.007812 537.597656 550.535156 537.058594 549.910156 C 536.5 549.253906 536.097656 548.511719 535.851562 547.683594 C 535.558594 546.726562 535.417969 545.75 535.429688 544.75 C 535.429688 543.828125 535.519531 542.914062 535.703125 542.007812 C 535.878906 541.097656 536.144531 540.21875 536.503906 539.367188 C 536.855469 538.527344 537.300781 537.734375 537.828125 536.992188 C 538.335938 536.257812 538.9375 535.609375 539.625 535.039062 C 540.304688 534.492188 541.050781 534.0625 541.867188 533.75 C 542.726562 533.429688 543.613281 533.273438 544.53125 533.28125 C 545.300781 533.261719 546.042969 533.386719 546.765625 533.652344 C 547.320312 533.863281 547.816406 534.171875 548.246094 534.582031 C 548.609375 534.917969 548.886719 535.316406 549.078125 535.773438 C 549.234375 536.15625 549.320312 536.558594 549.328125 536.972656 C 549.332031 537.457031 549.265625 537.929688 549.136719 538.390625 C 548.988281 538.863281 548.75 539.289062 548.421875 539.660156 C 548.023438 540.109375 547.566406 540.484375 547.046875 540.785156 C 546.347656 541.195312 545.609375 541.519531 544.832031 541.761719 C 543.773438 542.101562 542.699219 542.371094 541.605469 542.574219 C 540.347656 542.816406 538.875 543.023438 537.1875 543.207031 C 537.1875 543.453125 537.1875 543.695312 537.117188 543.949219 C 537.050781 544.203125 537.117188 544.449219 537.117188 544.691406 C 537.023438 546.246094 537.429688 547.652344 538.335938 548.914062 C 538.796875 549.445312 539.347656 549.84375 539.996094 550.113281 C 540.640625 550.382812 541.316406 550.488281 542.015625 550.4375 C 543.117188 550.460938 544.152344 550.214844 545.125 549.695312 C 545.5 549.496094 545.855469 549.261719 546.1875 549 C 546.5 548.765625 546.773438 548.53125 547.019531 548.316406 C 547.261719 548.101562 547.46875 547.925781 547.644531 547.78125 C 547.777344 547.65625 547.9375 547.585938 548.121094 547.574219 C 548.277344 547.578125 548.402344 547.640625 548.5 547.761719 Z M 544.414062 534.5625 C 543.492188 534.550781 542.621094 534.75 541.800781 535.167969 C 541.003906 535.578125 540.3125 536.125 539.730469 536.808594 C 539.117188 537.53125 538.613281 538.324219 538.230469 539.191406 C 537.824219 540.097656 537.527344 541.035156 537.332031 542.007812 C 538.875 541.839844 540.191406 541.644531 541.300781 541.421875 C 542.253906 541.234375 543.195312 541 544.121094 540.714844 C 544.777344 540.519531 545.40625 540.253906 546.003906 539.914062 C 546.425781 539.679688 546.796875 539.378906 547.117188 539.015625 C 547.367188 538.730469 547.542969 538.40625 547.644531 538.039062 C 547.730469 537.71875 547.773438 537.394531 547.777344 537.0625 C 547.773438 536.773438 547.714844 536.496094 547.605469 536.230469 C 547.480469 535.917969 547.289062 535.652344 547.039062 535.429688 C 546.726562 535.164062 546.378906 534.960938 545.996094 534.824219 C 545.484375 534.644531 544.957031 534.558594 544.414062 534.570312 Z M 544.414062 534.5625 " fill-opacity="1" fill-rule="nonzero"/></svg>